<svg height="512pt" viewBox="-146 0 512 512" width="512pt" xmlns="http://www.w3.org/2000/svg"><path d="m95 194.988281h29.996094v198.1875h-29.996094zm0 0" fill="#c4c0ad"/><path d="m110 194.988281h14.996094v198.1875h-14.996094zm0 0" fill="#a19d8d"/><path d="m139.996094 512h-59.996094c-8.285156 0-15-6.714844-15-15v-93.824219c0-24.8125 20.183594-45 45-45 24.8125 0 44.996094 20.1875 44.996094 45v93.824219c0 8.285156-6.714844 15-15 15zm0 0" fill="#878477"/><path d="m110 358.175781v153.824219h29.996094c8.285156 0 15-6.714844 15-15v-93.824219c0-24.8125-20.183594-45-44.996094-45zm0 0" fill="#696453"/><path d="m204.996094 219.984375h-189.996094c-8.285156 0-15-6.714844-15-15v-189.984375c0-8.285156 6.714844-15 15-15h189.996094c8.285156 0 15 6.714844 15 15v189.984375c0 8.285156-6.714844 15-15 15zm0 0" fill="#2698d1"/><path d="m204.996094 0h-94.996094v219.984375h94.996094c8.285156 0 15-6.714844 15-15v-189.984375c0-8.285156-6.714844-15-15-15zm0 0" fill="#125994"/><path d="m111.996094 44.988281h-29.996094c-8.285156 0-15 6.714844-15 15v99.996094c0 8.285156 6.714844 15 15 15 8.28125 0 15-6.714844 15-15v-25h14.996094c24.816406 0 45-20.183594 45-44.996094s-20.183594-45-45-45zm0 59.996094h-14.996094v-29.996094h14.996094c8.273437 0 15 6.726563 15 15 0 8.269531-6.726563 14.996094-15 14.996094zm0 0" fill="#fff"/><path d="m111.996094 44.988281h-1.996094v30h1.996094c8.273437 0 15 6.726563 15 15 0 8.269531-6.726563 14.996094-15 14.996094h-1.996094v30h1.996094c24.816406 0 45-20.183594 45-44.996094s-20.183594-45-45-45zm0 0" fill="#dfeefa"/></svg>